<svg width="270" height="120" viewBox="0 0 270 120" fill="none" xmlns="http://www.w3.org/2000/svg">
<rect width="270" height="120" rx="4" fill="#F5F4FA"/>
<path d="M167.316 76.3385L148.847 57.7337L150.897 47.6373C151.426 47.8438 151.988 47.9517 152.556 47.9558H152.57C155.178 47.9866 157.317 45.8974 157.348 43.2893C157.379 40.6812 155.289 38.542 152.681 38.5111C150.073 38.4803 147.934 40.5695 147.903 43.1776C147.897 43.7357 147.989 44.2905 148.176 44.8163L137.326 46.1405L119.628 28.35C119.41 28.1285 119.114 28.0025 118.804 28C118.498 28.0016 118.204 28.1235 117.987 28.3395L114.679 31.6295C114.223 32.0851 114.223 32.8236 114.679 33.2792L116.459 35.0852C109.562 47.7681 111.802 63.4741 121.97 73.7228C122.064 73.8121 122.172 73.8843 122.29 73.9363C122.216 74.3311 122.178 74.7317 122.176 75.1333V88.6667H108.176C104.956 88.6705 102.346 91.28 102.342 94.5V96.8333C102.342 97.4776 102.865 98 103.509 98H157.176C157.82 98 158.342 97.4776 158.342 96.8333V94.5C158.338 91.28 155.729 88.6705 152.509 88.6667H138.509V82.6688C140.702 83.1288 142.937 83.3633 145.178 83.3688C150.555 83.363 155.846 82.0225 160.578 79.4675L162.367 81.2677C162.584 81.4892 162.881 81.6152 163.191 81.6177C163.497 81.6161 163.79 81.4941 164.008 81.2782L167.316 77.9882C167.772 77.5326 167.772 76.7941 167.316 76.3385ZM150.925 41.6348C151.838 40.726 153.316 40.7301 154.224 41.6437C155.133 42.5574 155.129 44.0348 154.215 44.9435C153.778 45.3785 153.186 45.6226 152.569 45.6225H152.562C151.274 45.6158 150.235 44.5658 150.241 43.2771C150.244 42.6602 150.492 42.0699 150.929 41.6348H150.925V41.6348ZM148.178 49.301L146.869 55.7445L144.298 53.158L148.178 49.301ZM146.853 47.3282L142.653 51.5037L139.404 48.237L146.853 47.3282ZM152.509 91C154.442 91 156.009 92.567 156.009 94.5V95.6667H104.676V94.5C104.676 92.567 106.243 91 108.176 91H152.509ZM136.176 86.3333V88.6667H124.509V86.3333H136.176ZM124.509 84V75.1333C124.509 72.303 127.126 70 130.342 70C133.559 70 136.176 72.303 136.176 75.1333V84H124.509ZM138.509 80.29V75.1333C138.509 71.0162 134.846 67.6667 130.342 67.6667C127.431 67.622 124.708 69.1041 123.165 71.5738C114.289 62.2249 112.29 48.2875 118.181 36.8207L158.872 77.7455C152.589 80.9419 145.386 81.8418 138.509 80.29ZM163.204 78.7943L161.56 77.1412L118.792 34.1157L117.141 32.4613L118.792 30.8163L136.15 48.272C136.158 48.272 136.163 48.2872 136.171 48.293L164.859 77.1493L163.204 78.7943Z" fill="#212121"/>
<path d="M130.353 72.3333H130.342C128.409 72.3304 126.84 73.895 126.837 75.8281C126.834 77.7611 128.399 79.3304 130.332 79.3333H130.342C132.275 79.3362 133.845 77.7716 133.848 75.8386C133.85 73.9055 132.286 72.3362 130.353 72.3333ZM131.169 76.6605C130.95 76.8789 130.652 77.0012 130.342 77C129.698 76.9966 129.178 76.4716 129.182 75.8273C129.183 75.5189 129.307 75.2237 129.526 75.0062C129.743 74.7902 130.036 74.6683 130.342 74.6667C130.987 74.67 131.506 75.195 131.503 75.8393C131.501 76.1477 131.378 76.4429 131.159 76.6605H131.169Z" fill="#2196F3"/>
</svg>
